<!-- icon666.com - MILLIONS vector ICONS FREE --><svg version="1.1" id="Capa_1" xmlns="http://www.w3.org/2000/svg" xmlns:xlink="http://www.w3.org/1999/xlink" x="0px" y="0px" viewBox="0 0 512 512" style="enable-background:new 0 0 512 512;" xml:space="preserve"><path style="fill:#585A60;" d="M362.5,166.937V79H360c-10.752,0-19.5-8.748-19.5-19.5c0-5.102,1.929-9.85,5.456-13.5H317 c-10.752,0-19.5-8.748-19.5-19.5S306.248,7,317,7h46c10.752,0,19.5,8.748,19.5,19.5c0,5.102-1.929,9.85-5.456,13.5H403 c10.752,0,19.5,8.748,19.5,19.5S413.752,79,403,79h-12.5v85.643L362.5,166.937z"></path><path style="fill:#3F434C;" d="M375.731,59.5c0-5.102,1.929-9.85,5.456-13.5h-28.956c-10.752,0-19.5-8.748-19.5-19.5 S341.479,7,352.231,7H317c-10.752,0-19.5,8.748-19.5,19.5S306.248,46,317,46h28.956c-3.527,3.65-5.456,8.398-5.456,13.5 c0,10.752,8.748,19.5,19.5,19.5h2.5v87.938l28-2.294V79h4.731C384.479,79,375.731,70.252,375.731,59.5z"></path><g><path style="fill:#74767F;" d="M138,183c-13.51,0-24.5-10.99-24.5-24.5S124.49,134,138,134h20.865 c-1.57-3.296-2.365-6.823-2.365-10.5c0-13.51,10.99-24.5,24.5-24.5h52c13.51,0,24.5,10.99,24.5,24.5S246.51,148,233,148h-20.865 c1.57,3.296,2.365,6.823,2.365,10.5c0,13.51-10.99,24.5-24.5,24.5H138z"></path><path style="fill:#74767F;" d="M407.5,303v-83H405c-10.752,0-19.5-8.748-19.5-19.5c0-5.102,1.929-9.85,5.456-13.5H362 c-10.752,0-19.5-8.748-19.5-19.5S351.248,148,362,148h46c10.752,0,19.5,8.748,19.5,19.5c0,5.102-1.929,9.85-5.456,13.5H448 c10.752,0,19.5,8.748,19.5,19.5S458.752,220,448,220h-12.5v87.118L407.5,303z"></path></g><path style="fill:#545866;" d="M420.731,200.5c0-5.102,1.929-9.85,5.456-13.5h-28.956c-10.752,0-19.5-8.748-19.5-19.5 s8.748-19.5,19.5-19.5H362c-10.752,0-19.5,8.748-19.5,19.5S351.248,187,362,187h28.956c-3.527,3.65-5.456,8.398-5.456,13.5 c0,10.752,8.748,19.5,19.5,19.5h2.5v83l28,4.118V220h4.731C429.479,220,420.731,211.252,420.731,200.5z"></path><path style="fill:#74767F;" d="M385.074,340.777c-1.684-3.57-2.574-7.545-2.574-11.493V270.85c0-16.184-13.167-29.351-29.35-29.351 h-213.3c-16.184,0-29.35,13.167-29.35,29.351v92.65h99.94h65.119h120.229L385.074,340.777z"></path><path style="fill:#565963;" d="M229.85,241.5h-90c-16.184,0-29.35,13.167-29.35,29.351V363.5h90v-92.649 C200.5,254.667,213.667,241.5,229.85,241.5z"></path><path style="fill:#BBECFF;" d="M385.074,340.778c-1.695-3.594-2.574-7.52-2.574-11.494v-55.443c0-3.017-2.446-5.463-5.464-5.463 H272.464c-3.017,0-5.464,2.446-5.464,5.463v75.979v13.68h8.559h120.229L385.074,340.778z"></path><polygon style="fill:#FFFFFF;" points="267,334.327 340.394,268.378 330.045,268.378 267,325.028 "></polygon><path style="fill:#CE245C;" d="M276.653,364l33.259-64.482c0.577-1.119,1.652-1.898,2.895-2.097l2.011-0.323 c23.141-3.72,46.744-5.605,70.156-5.605c20.901,0,42.03,1.505,62.8,4.472l5.152,0.736c2.565,0.367,4.095,3.054,3.101,5.446 L430.334,364H276.653z"></path><path style="fill:#BBECFF;" d="M236.816,268.5h-87.971c-2.379,0-4.647,0.777-6.387,2.188c-1.872,1.519-2.958,3.801-2.958,6.212v86.6 h70.94H243v-15v-73.816C243,271.269,240.231,268.5,236.816,268.5z"></path><g><polygon style="fill:#FFFFFF;" points="139.5,336.77 215.477,268.5 194.78,268.5 139.5,318.173 "></polygon><path style="fill:#FFFFFF;" d="M243,274.684c0-2.617-1.628-4.85-3.926-5.752L139.5,358.405v5.095h32.094L243,299.337V274.684z"></path></g><path style="fill:#434751;" d="M411.5,504.5c-22.883,0-41.5-18.617-41.5-41.5s18.617-41.5,41.5-41.5S453,440.117,453,463 S434.383,504.5,411.5,504.5z"></path><path style="fill:#FF507D;" d="M440.813,362.5H275.559h-65.118H71.188c-15.818,0-28.688,12.869-28.688,28.688V463.5h43.432h82.137 h77.863h82.137H469.5v-72.313C469.5,375.369,456.631,362.5,440.813,362.5z"></path><path style="fill:#F2386D;" d="M161.188,362.5h-90c-15.818,0-28.688,12.869-28.688,28.688V463.5h43.432H132.5v-72.313 C132.5,375.369,145.369,362.5,161.188,362.5z"></path><g><path style="fill:#FFDC64;" d="M346,427.5c-7.995,0-14.5-6.505-14.5-14.5s6.505-14.5,14.5-14.5s14.5,6.505,14.5,14.5 S353.995,427.5,346,427.5z"></path><path style="fill:#FFDC64;" d="M436,427.5c-7.995,0-14.5-6.505-14.5-14.5s6.505-14.5,14.5-14.5s14.5,6.505,14.5,14.5 S443.995,427.5,436,427.5z"></path></g><g><path style="fill:#F49F4A;" d="M356.169,417.331c-7.995,0-14.5-6.505-14.5-14.5c0-1.319,0.192-2.591,0.524-3.807 c-6.152,1.678-10.693,7.3-10.693,13.976c0,7.995,6.505,14.5,14.5,14.5c6.676,0,12.298-4.542,13.976-10.693 C358.761,417.138,357.488,417.331,356.169,417.331z"></path><path style="fill:#F49F4A;" d="M446.169,417.331c-7.995,0-14.5-6.505-14.5-14.5c0-1.319,0.192-2.591,0.524-3.807 c-6.152,1.678-10.693,7.3-10.693,13.976c0,7.995,6.505,14.5,14.5,14.5c6.676,0,12.298-4.542,13.976-10.693 C448.761,417.138,447.488,417.331,446.169,417.331z"></path></g><path style="fill:#A9ADBF;" d="M468,462.5H328.069H85.931H44c-5.79,0-10.5,4.71-10.5,10.5s4.71,10.5,10.5,10.5h46.558h232.884H468 c5.79,0,10.5-4.71,10.5-10.5S473.79,462.5,468,462.5z"></path><path style="fill:#828AA0;" d="M116.775,473c0-5.79,4.71-10.5,10.5-10.5H85.931H44c-5.79,0-10.5,4.71-10.5,10.5s4.71,10.5,10.5,10.5 h46.558h36.717C121.485,483.5,116.775,478.79,116.775,473z"></path><path style="fill:#525360;" d="M287,504.5c-22.883,0-41.5-18.617-41.5-41.5s18.617-41.5,41.5-41.5s41.5,18.617,41.5,41.5 S309.883,504.5,287,504.5z"></path><path style="fill:#434751;" d="M280.971,464.657c0-17.216,10.539-32.015,25.504-38.29c-5.812-3.103-12.44-4.868-19.475-4.868 c-22.883,0-41.5,18.617-41.5,41.5s18.617,41.5,41.5,41.5c5.667,0,11.07-1.145,15.996-3.21 C289.904,494.301,280.971,480.505,280.971,464.657z"></path><path style="fill:#A9ADBF;" d="M287,479.629c-9.169,0-16.629-7.46-16.629-16.629s7.46-16.629,16.629-16.629 s16.629,7.46,16.629,16.629S296.169,479.629,287,479.629z"></path><path style="fill:#525360;" d="M127,504.5c-22.883,0-41.5-18.617-41.5-41.5s18.617-41.5,41.5-41.5s41.5,18.617,41.5,41.5 S149.883,504.5,127,504.5z"></path><path style="fill:#434751;" d="M120.971,464.657c0-17.216,10.539-32.015,25.504-38.29c-5.812-3.103-12.44-4.868-19.475-4.868 c-22.883,0-41.5,18.617-41.5,41.5s18.617,41.5,41.5,41.5c5.667,0,11.07-1.145,15.996-3.21 C129.904,494.301,120.971,480.505,120.971,464.657z"></path><path style="fill:#A9ADBF;" d="M127,479.629c-9.169,0-16.629-7.46-16.629-16.629s7.46-16.629,16.629-16.629 s16.629,7.46,16.629,16.629S136.169,479.629,127,479.629z"></path><path style="fill:#F2386D;" d="M226,378.5c-8.547,0-15.5-6.953-15.5-15.5s6.953-15.5,15.5-15.5h34c8.547,0,15.5,6.953,15.5,15.5 s-6.953,15.5-15.5,15.5H226z"></path><path style="fill:#545866;" d="M201.926,122.839c-6.09,0-9.858-6.642-6.735-11.87C199.469,103.806,207.298,99,216.231,99h-34.714 c-13.439,0-24.978,10.989-25.017,24.427c-0.011,3.703,0.784,7.255,2.365,10.573h-20.308c-13.707,0-25.286,11.216-25.053,24.921 C113.729,172.238,124.631,183,138,183h35.231c-13.369,0-24.271-10.762-24.496-24.079C148.502,145.216,160.081,134,173.788,134H185.5 h8.596h36.323c3.082,0,5.581-2.499,5.581-5.581l0,0c0-3.082-2.499-5.581-5.581-5.581L201.926,122.839L201.926,122.839z"></path><path d="M127,440c-12.958,0-23.5,10.542-23.5,23.5S114.042,487,127,487s23.5-10.542,23.5-23.5S139.958,440,127,440z M127,472 c-4.687,0-8.5-3.813-8.5-8.5s3.813-8.5,8.5-8.5s8.5,3.813,8.5,8.5S131.687,472,127,472z"></path><path d="M287,440c-12.958,0-23.5,10.542-23.5,23.5S274.042,487,287,487s23.5-10.542,23.5-23.5S299.958,440,287,440z M287,472 c-4.687,0-8.5-3.813-8.5-8.5s3.813-8.5,8.5-8.5s8.5,3.813,8.5,8.5S291.687,472,287,472z"></path><path d="M476.5,458.216v-66.528c0-19.536-15.781-35.457-35.265-35.685l20.193-48.614c1.563-3.76,1.297-8.124-0.709-11.676 c-1.921-3.4-5.193-5.676-8.981-6.243c-3.077-0.46-6.157-0.884-9.238-1.28V227h5.5c14.612,0,26.5-11.888,26.5-26.5 S462.612,174,448,174h-14.318c0.538-2.109,0.818-4.293,0.818-6.5c0-14.612-11.888-26.5-26.5-26.5h-10.5V86h5.5 c14.612,0,26.5-11.888,26.5-26.5S417.612,33,403,33h-14.318c0.538-2.109,0.818-4.293,0.818-6.5C389.5,11.888,377.612,0,363,0h-46 c-14.612,0-26.5,11.888-26.5,26.5S302.388,53,317,53h17.318c-0.538,2.109-0.818,4.293-0.818,6.5c0,13.079,9.522,23.976,22,26.118 v56.191c-11.479,2.906-20,13.321-20,25.691c0,14.612,11.888,26.5,26.5,26.5h17.318c-0.538,2.109-0.818,4.293-0.818,6.5 c0,13.079,9.522,23.976,22,26.118v58.153c-3.667-0.127-7.333-0.209-11-0.246v-13.174c0-0.91-0.045-1.809-0.111-2.702 c-0.001-0.017-0.002-0.033-0.004-0.05C387.972,249.836,372.267,235,353.149,235H139.851c-20.044,0-36.351,16.307-36.351,36.351V356 H71.188C51.51,356,35.5,372.01,35.5,391.688v66.528c-5.362,2.994-9,8.719-9,15.284c0,9.649,7.851,17.5,17.5,17.5h43.08 c8.758,12.674,23.382,21,39.92,21s31.161-8.326,39.92-21h80.161c8.758,12.674,23.382,21,39.92,21s31.161-8.326,39.92-21h45.147 c9.001,13.035,23.962,21,39.934,21c15.971,0,30.932-7.964,39.934-21H468c9.649,0,17.5-7.851,17.5-17.5 C485.5,466.935,481.862,461.21,476.5,458.216z M348.5,59.5c0-3.245,1.332-6.253,3.752-8.469c2.281-2.09,3.046-5.365,1.925-8.249 c-1.12-2.883-3.896-4.782-6.99-4.782H317c-6.341,0-11.5-5.159-11.5-11.5S310.659,15,317,15h46c6.341,0,11.5,5.159,11.5,11.5 c0,3.245-1.332,6.253-3.752,8.469c-2.281,2.09-3.046,5.365-1.925,8.249c1.12,2.883,3.896,4.782,6.99,4.782H403 c6.341,0,11.5,5.159,11.5,11.5S409.341,71,403,71h-13c-4.143,0-7.5,3.357-7.5,7.5V141h-12V78.5c0-4.143-3.357-7.5-7.5-7.5h-3 C353.659,71,348.5,65.841,348.5,59.5z M393.5,200.5c0-3.245,1.332-6.253,3.752-8.469c2.281-2.09,3.046-5.365,1.925-8.249 c-1.12-2.883-3.896-4.782-6.99-4.782H362c-6.341,0-11.5-5.159-11.5-11.5S355.659,156,362,156h46c6.341,0,11.5,5.159,11.5,11.5 c0,3.245-1.332,6.253-3.752,8.469c-2.281,2.09-3.046,5.365-1.925,8.249c1.12,2.883,3.896,4.782,6.99,4.782H448 c6.341,0,11.5,5.159,11.5,11.5S454.341,212,448,212h-13c-4.143,0-7.5,3.357-7.5,7.5v67.022c-3.998-0.379-7.998-0.708-12-0.981V219.5 c0-4.143-3.357-7.5-7.5-7.5h-3C398.659,212,393.5,206.841,393.5,200.5z M446.643,303.884L424.994,356H289.781l26.307-51.004 C359.298,298.051,403.199,297.677,446.643,303.884z M374.5,284.626c-20.858,0.487-41.678,2.417-62.344,5.811 c-3.775,0.62-7.037,3.103-8.95,6.811l-26.442,51.266c-0.555-0.621-1.144-1.21-1.764-1.766v-69.87h99.5V284.626z M118.5,271.351 c0-11.772,9.578-21.351,21.351-21.351H353.15c8.368,0,15.607,4.851,19.105,11.878H267.5c-4.143,0-7.5,3.357-7.5,7.5V341h-10v-71.5 c0-4.143-3.357-7.5-7.5-7.5h-93.655c-9.013,0-16.345,6.779-16.345,15.111V356h-14V271.351z M267.5,363.5c0,4.136-3.364,7.5-7.5,7.5 h-34c-4.136,0-7.5-3.364-7.5-7.5s3.364-7.5,7.5-7.5h34C264.136,356,267.5,359.364,267.5,363.5z M44,476c-1.379,0-2.5-1.121-2.5-2.5 s1.121-2.5,2.5-2.5h35.082c0.265,1.698,0.623,3.365,1.06,5H44z M127,497c-18.472,0-33.5-15.028-33.5-33.5S108.528,430,127,430 s33.5,15.028,33.5,33.5S145.472,497,127,497z M173.858,476c0.437-1.635,0.795-3.302,1.06-5h64.164c0.265,1.698,0.623,3.365,1.06,5 H173.858z M287,497c-18.472,0-33.5-15.028-33.5-33.5S268.528,430,287,430s33.5,15.028,33.5,33.5S305.472,497,287,497z M287,415 c-24.193,0-44.302,17.806-47.918,41h-64.164c-3.616-23.194-23.725-41-47.918-41s-44.302,17.806-47.918,41H50.5v-64.313 C50.5,380.262,59.762,371,71.188,371h83.844c4.142,0,7.5-3.358,7.5-7.5l0,0c0-4.142-3.358-7.5-7.5-7.5H147.5v-78.601 c0.187-0.15,0.631-0.399,1.345-0.399H235v64h-9c-9.777,0-18.114,6.271-21.21,15h-6.098c-4.142,0-7.5,3.358-7.5,7.5l0,0 c0,4.142,3.358,7.5,7.5,7.5h6.098c3.096,8.729,11.433,15,21.21,15h34c9.777,0,18.114-6.271,21.21-15h148.617 c0.113,0.002,0.227,0.002,0.34,0h10.646c11.425,0,20.688,9.262,20.688,20.688V456H334.918C331.302,432.806,311.193,415,287,415z M412,497c-6.914,0-13.551-2.171-19.079-6h38.158C425.551,494.83,418.914,497,412,497z M468,476H333.858 c0.437-1.635,0.795-3.302,1.06-5H468c1.379,0,2.5,1.121,2.5,2.5S469.379,476,468,476z"></path><path d="M436,435c11.855,0,21.5-9.645,21.5-21.5S447.855,392,436,392s-21.5,9.645-21.5,21.5S424.145,435,436,435z M436,407 c3.584,0,6.5,2.916,6.5,6.5s-2.916,6.5-6.5,6.5s-6.5-2.916-6.5-6.5S432.416,407,436,407z"></path><path d="M346,435c11.855,0,21.5-9.645,21.5-21.5S357.855,392,346,392s-21.5,9.645-21.5,21.5S334.145,435,346,435z M346,407 c3.584,0,6.5,2.916,6.5,6.5s-2.916,6.5-6.5,6.5s-6.5-2.916-6.5-6.5S342.416,407,346,407z"></path><path d="M379,411h25c4.143,0,7.5-3.357,7.5-7.5s-3.357-7.5-7.5-7.5h-25c-4.143,0-7.5,3.357-7.5,7.5S374.857,411,379,411z"></path><path d="M400.5,419h-18c-4.143,0-7.5,3.357-7.5,7.5s3.357,7.5,7.5,7.5h18c4.143,0,7.5-3.357,7.5-7.5S404.643,419,400.5,419z"></path><path d="M220,440c4.143,0,7.5-3.357,7.5-7.5v-30c0-4.143-3.357-7.5-7.5-7.5s-7.5,3.357-7.5,7.5v30 C212.5,436.643,215.857,440,220,440z"></path><path d="M138,190h52c17.369,0,31.5-14.131,31.5-31.5c0-1.17-0.066-2.339-0.197-3.5H233c17.369,0,31.5-14.131,31.5-31.5 S250.369,92,233,92h-52c-17.369,0-31.5,14.131-31.5,31.5c0,1.17,0.066,2.339,0.197,3.5H138c-17.369,0-31.5,14.131-31.5,31.5 S120.631,190,138,190z M138,142h21.672c2.617,0,5.046-1.364,6.406-3.601c1.361-2.235,1.458-5.019,0.256-7.344 c-1.217-2.354-1.834-4.896-1.834-7.556c0-9.098,7.402-16.5,16.5-16.5h52c9.098,0,16.5,7.402,16.5,16.5S242.098,140,233,140h-21.672 c-2.617,0-5.046,1.364-6.406,3.601c-1.361,2.235-1.458,5.019-0.256,7.344c1.217,2.354,1.834,4.896,1.834,7.556 c0,9.098-7.402,16.5-16.5,16.5h-52c-9.098,0-16.5-7.402-16.5-16.5S128.902,142,138,142z"></path></svg>