<!-- icon666.com - MILLIONS vector ICONS FREE --><svg id="Layer_1" viewBox="0 0 64 64" xmlns="http://www.w3.org/2000/svg" data-name="Layer 1"><path d="m15.5 6-9.93 6.86 6.28 9.41c12.99 2.82 30.48 11.83 9.15 40.73h37c14.35-49.52-21.25-56.8-42.5-57z" fill="#6c8199"></path><path d="m49 39s-11.61 1.31-10.37 13.38a19 19 0 0 1 -1.16 8.74s23.36-3.71 11.53-22.12z" fill="#67cc6d"></path><path d="m45.71 12.19-3.22-1.26-3-4.24a8 8 0 0 0 -5.13-3.29l-7.26-1.28a8 8 0 0 0 -6 1.33l-4.24 3-8.56.45a6 6 0 0 0 -5.6 5l-.7 4.1 43.33 7.64 1.67-9.24a2 2 0 0 0 -1.29-2.21z" fill="#ff7375"></path><g fill="#f2f2f2"><circle cx="11.85" cy="17.71" r="4"></circle><circle cx="36.47" cy="22.05" r="4"></circle><path d="m19.32 9.89 19.68 3.47-3.09-4.43a4 4 0 0 0 -2.58-1.65l-6.59-1.16a4.06 4.06 0 0 0 -3 .66z"></path></g><path d="m46.08 11.26-2.94-1.15-2.8-4a9 9 0 0 0 -5.8-3.7l-7.27-1.27a8.92 8.92 0 0 0 -6.72 1.49l-4 2.8-8.27.44a6.94 6.94 0 0 0 -6.53 5.76l-.75 4.17a1 1 0 0 0 .83 1.2l5 .88a5 5 0 0 0 4.17 4.75 4.27 4.27 0 0 0 .87.08 5 5 0 0 0 4.64-3.17l15 2.65a4.94 4.94 0 0 0 .9 2.73 5 5 0 0 0 3.19 2.08 5.1 5.1 0 0 0 .87.07 5 5 0 0 0 4.64-3.16l4 .71h.17a1 1 0 0 0 1-.82l1.62-9.22a3 3 0 0 0 -1.82-3.32zm-31.28 7a3 3 0 0 1 -3.47 2.43 2.93 2.93 0 0 1 -1.94-1.23 3 3 0 0 1 .74-4.18 3 3 0 0 1 1.71-.54 3.17 3.17 0 0 1 .53 0 3 3 0 0 1 2.43 3.49zm24.62 4.34a3 3 0 1 1 -3-3.52 3.15 3.15 0 0 1 .52.05 3 3 0 0 1 2.43 3.47zm5.1-.11-3.05-.54a5 5 0 0 0 -9.65-1.7l-15-2.64a5 5 0 0 0 -4.13-4.79 5 5 0 0 0 -5.49 3.05l-4-.71.52-3.16a5 5 0 0 1 4.66-4.14l8.56-.45a1 1 0 0 0 .52-.18l4.24-3a6.91 6.91 0 0 1 5.22-1.15l7.27 1.28a6.91 6.91 0 0 1 4.51 2.9l3 4.24a1 1 0 0 0 .46.36l3.22 1.26a1 1 0 0 1 .62 1.1z"></path><path d="m36.73 8.35a5 5 0 0 0 -3.23-2l-6.58-1.21a5 5 0 0 0 -3.74.86l-4.43 3.07a1 1 0 0 0 .4 1.8l19.69 3.48h.16a1 1 0 0 0 .84-.46 1 1 0 0 0 0-1.11zm-8.37 2.12-6.49-1.15 2.46-1.72a3 3 0 0 1 2.24-.49l2.31.4zm2 .34.52-2.95 2.3.41a3 3 0 0 1 1.91 1.23l1.72 2.5z"></path><path d="m47.93 26.63-1.86.74a31.53 31.53 0 0 1 1.85 10.82c-2.91.66-11.39 3.53-10.28 14.29a18.13 18.13 0 0 1 -1.09 8.24 1 1 0 0 0 .92 1.4h.15c.47-.08 11.5-1.91 14.81-9.3 1.77-4 1-8.68-2.39-14a24.93 24.93 0 0 0 -2.11-12.19zm2.67 25.37c-2.16 4.82-8.6 7-11.6 7.77a20.64 20.64 0 0 0 .65-7.5c-.9-8.74 5.44-11.32 8.22-12a29.42 29.42 0 0 1 -3.87 12.73 22.79 22.79 0 0 0 5.58-11c1.92 3.86 2.27 7.2 1.02 10z"></path><path d="m53 17.29-1.41 1.42c9.37 9.36 11.2 24.17 5.45 44l1.92.56c5.97-20.58 3.97-36.06-5.96-45.98z"></path><path d="m27.31 31.6c5.23 7 2.84 17.32-7.11 30.81l1.6 1.18c10.54-14.27 12.93-25.44 7.11-33.19z"></path></svg>