<!-- icon666.com - MILLIONS vector ICONS FREE --><svg id="Capa_1" enable-background="new 0 0 512 512" viewBox="0 0 512 512" xmlns="http://www.w3.org/2000/svg"><g><g><path d="m488.337 408.754h-16.163v-202.032h16.163c8.926 0 16.163 7.236 16.163 16.163v169.707c0 8.926-7.236 16.162-16.163 16.162z" fill="#91dafa"></path></g><g><path d="m407.524 206.722h32.325v202.033h-32.325z" fill="#75cff9"></path></g><g><path d="m383.28 439.059h-238.398c-13.39 0-24.244-10.854-24.244-24.244v-214.154c0-13.39 10.854-24.244 24.244-24.244h238.398c13.39 0 24.244 10.854 24.244 24.244v214.154c0 13.39-10.854 24.244-24.244 24.244z" fill="#bfbfbf"></path></g><g><path d="m383.28 176.417h-30.305c13.39 0 24.244 10.854 24.244 24.244v214.154c0 13.39-10.854 24.244-24.244 24.244h30.305c13.39 0 24.244-10.854 24.244-24.244v-214.154c0-13.39-10.854-24.244-24.244-24.244z" fill="#acacac"></path></g><g><path d="m193.37 144.092h141.423v32.325h-141.423z" fill="#5a5a5a"></path></g><g><path d="m367.118 144.092h-206.073c-11.158 0-20.203-9.045-20.203-20.203v-12.122h246.48v12.122c-.001 11.157-9.046 20.203-20.204 20.203z" fill="#bfbfbf"></path></g><g><path d="m359.037 111.767v12.122c0 11.158-9.045 20.203-20.203 20.203h28.285c11.158 0 20.203-9.045 20.203-20.203v-12.122z" fill="#acacac"></path></g><g><path d="m367.118 16.811h-206.073c-11.158 0-20.203 9.045-20.203 20.203v42.427h246.48v-42.426c-.001-11.158-9.046-20.204-20.204-20.204z" fill="#bfbfbf"></path></g><g><path d="m367.118 16.811h-28.285c11.158 0 20.203 9.045 20.203 20.203v42.427h28.285v-42.426c0-11.158-9.045-20.204-20.203-20.204z" fill="#acacac"></path></g><g><path d="m391.362 111.767h-254.561c-8.926 0-16.163-7.236-16.163-16.163 0-8.926 7.236-16.163 16.163-16.163h254.561c8.926 0 16.163 7.236 16.163 16.163-.001 8.926-7.237 16.163-16.163 16.163z" fill="#838383"></path></g><g><path d="m391.362 79.441h-32.325c8.926 0 16.163 7.236 16.163 16.163s-7.236 16.163-16.163 16.163h32.325c8.926 0 16.163-7.236 16.163-16.163s-7.237-16.163-16.163-16.163z" fill="#5a5a5a"></path></g><g><path d="m120.638 350.165-25.237-7.886c-4.217-1.318-7.089-5.223-7.089-9.642v-49.797c0-4.418 2.871-8.324 7.089-9.642l25.237-7.886z" fill="#ffe07d"></path></g><g><path d="m55.988 291.576h32.325v32.325h-32.325z" fill="#5a5a5a"></path></g><g><path d="m456.012 439.059c-8.926 0-16.163-7.236-16.163-16.163v-230.316c0-8.926 7.236-16.163 16.163-16.163 8.926 0 16.163 7.236 16.163 16.163v230.317c0 8.926-7.236 16.162-16.163 16.162z" fill="#5fa7ee"></path></g><g><path d="m55.988 340.063h-32.325c-8.926 0-16.163-7.236-16.163-16.163v-32.325c0-8.926 7.236-16.163 16.163-16.163h32.325z" fill="#e175a5"></path></g><g><path d="m55.988 275.413h-32.325v-136.944c0-2.786 1.435-5.376 3.798-6.853l16.163-10.102c5.383-3.364 12.364.506 12.364 6.853z" fill="#9c9c9c"></path></g><g><path d="m23.663 340.063h32.325v136.944c0 2.786-1.435 5.376-3.798 6.853l-16.163 10.102c-5.383 3.364-12.364-.506-12.364-6.853z" fill="#9c9c9c"></path></g><g><g><path d="m351.758 366.082-73.548-132.386c-6.158-11.084-22.099-11.084-28.257 0l-73.548 132.386c-5.985 10.773 1.805 24.012 14.129 24.012h147.095c12.324 0 20.114-13.239 14.129-24.012z" fill="#ffe07d"></path></g><g><path d="m351.758 366.082-39.629-71.333c-9.784 20.507-25.088 42.11-45.002 62.024-13.232 13.233-27.21 24.425-41.117 33.321h111.62c12.323 0 20.113-13.239 14.128-24.012z" fill="#ffd064"></path></g></g><g><path d="m359.037 471.384h-189.911c-8.926 0-16.163-7.236-16.163-16.163v-16.163h222.236v16.163c0 8.927-7.236 16.163-16.162 16.163z" fill="#838383"></path></g><g><path d="m344.894 439.059v16.163c0 8.926-7.236 16.163-16.163 16.163h30.305c8.926 0 16.163-7.236 16.163-16.163v-16.163z" fill="#5a5a5a"></path></g><g><path d="m284.766 230.053c-4.233-7.621-11.966-12.171-20.685-12.171-8.718 0-16.451 4.55-20.685 12.171l-73.547 132.387c-4.115 7.407-4.006 16.188.291 23.491s11.921 11.663 20.394 11.663h147.095c8.473 0 16.097-4.36 20.394-11.662 4.298-7.303 4.406-16.084.292-23.492zm60.329 148.271c-.755 1.283-2.995 4.269-7.466 4.269h-147.095c-4.471 0-6.711-2.986-7.466-4.27s-2.278-4.691-.106-8.6l73.548-132.385c2.234-4.022 6.04-4.456 7.572-4.456 1.533 0 5.339.434 7.572 4.456l73.548 132.386c2.171 3.909.649 7.317-.107 8.6z"></path><path d="m264.081 351.905c-4.231 0-7.66 3.43-7.66 7.66s3.43 7.66 7.66 7.66 7.66-3.43 7.66-7.66-3.429-7.66-7.66-7.66z"></path><path d="m264.193 336.984c4.143 0 7.5-3.358 7.5-7.5v-58.589c0-4.142-3.357-7.5-7.5-7.5s-7.5 3.358-7.5 7.5v58.589c0 4.142 3.358 7.5 7.5 7.5z"></path><path d="m488.337 199.222h-8.667v-6.645c0-6.309-2.457-12.249-6.927-16.734-4.468-4.466-10.41-6.926-16.733-6.926-13.046 0-23.66 10.614-23.66 23.66v6.645h-17.366c-.754-16.838-14.683-30.305-31.703-30.305h-40.987v-17.33h24.827c15.274 0 27.7-12.426 27.7-27.7v-4.876c11.414-1.679 20.204-11.534 20.204-23.407s-8.79-21.728-20.203-23.407v-35.183c0-15.275-12.428-27.703-27.703-27.703h-206.074c-15.276 0-27.704 12.428-27.704 27.703v35.182c-11.413 1.679-20.203 11.535-20.203 23.407s8.789 21.727 20.202 23.407v4.876c0 15.274 12.426 27.7 27.7 27.7h24.83v17.33h-40.99c-17.501 0-31.74 14.238-31.74 31.74v59.14l-19.976 6.242c-7.388 2.309-12.351 9.061-12.351 16.801v1.236h-17.325v-155.708c0-5.662-3.076-10.883-8.028-13.628-4.95-2.744-11.01-2.585-15.812.415l-16.162 10.102c-4.586 2.866-7.324 7.805-7.324 13.213v130.669c-9.381 3.144-16.162 12.011-16.162 22.437v32.325c0 10.427 6.781 19.293 16.163 22.437v140.771c0 5.662 3.076 10.883 8.028 13.628 2.353 1.304 4.954 1.952 7.553 1.952 2.871 0 5.739-.792 8.259-2.367l16.163-10.102c4.585-2.867 7.323-7.806 7.323-13.213v-145.605h17.325v1.236c0 7.74 4.963 14.492 12.352 16.801l19.976 6.242v7.948c0 4.142 3.358 7.5 7.5 7.5s7.5-3.358 7.5-7.5v-162.97c0-9.23 7.509-16.74 16.74-16.74h238.4c9.23 0 16.739 7.509 16.739 16.74v214.16c0 9.23-7.509 16.74-16.739 16.74h-238.4c-9.23 0-16.74-7.509-16.74-16.74v-16.19c0-4.142-3.358-7.5-7.5-7.5s-7.5 3.358-7.5 7.5v16.19c0 17.501 14.238 31.74 31.74 31.74h.583v8.665c0 13.047 10.615 23.663 23.663 23.663h189.91c13.048 0 23.663-10.615 23.663-23.663v-8.665h.581c17.019 0 30.948-13.466 31.703-30.303h17.366v6.643c0 13.046 10.614 23.66 23.66 23.66s23.66-10.614 23.66-23.66v-6.643h8.667c13.048 0 23.663-10.615 23.663-23.663v-169.707c-.001-13.048-10.616-23.663-23.664-23.663zm-456.901-61.246 16.162-10.102c.109-.067.29-.182.59-.015.299.166.299.38.299.508v139.545h-17.324v-129.443c0-.202.102-.386.273-.493zm-16.436 153.599c0-4.776 3.886-8.663 8.663-8.663h24.825v49.65h-24.825c-4.776 0-8.663-3.886-8.663-8.663zm33.214 185.925-16.162 10.102c-.109.067-.291.181-.59.015s-.299-.38-.299-.508v-139.546h17.325v129.444c0 .202-.103.386-.274.493zm15.274-161.099v-17.325h17.325v17.325zm34.151 18.719c-1.092-.341-1.826-1.339-1.826-2.483v-49.797c0-1.144.734-2.142 1.825-2.483l15.502-4.844v64.452zm59.035-310.017 6.833 12.549c1.36 2.499 3.936 3.915 6.594 3.915 1.211 0 2.44-.294 3.58-.915 3.638-1.98 4.981-6.535 3-10.173l-3.358-6.167h28.223l7.263 13.34c1.36 2.499 3.936 3.915 6.594 3.915 1.211 0 2.44-.294 3.58-.915 3.638-1.98 4.981-6.535 3-10.173l-3.358-6.167h28.223l7.263 13.34c1.36 2.499 3.936 3.915 6.594 3.915 1.212 0 2.44-.294 3.579-.915 3.639-1.98 4.981-6.535 3.001-10.173l-3.358-6.167h28.222l7.264 13.34c1.36 2.499 3.936 3.915 6.594 3.915 1.212 0 2.44-.294 3.58-.915 3.638-1.981 4.98-6.536 3-10.173l-3.358-6.167h28.223l7.263 13.34c1.36 2.499 3.936 3.915 6.594 3.915 1.211 0 2.44-.294 3.579-.915 3.638-1.98 4.981-6.535 3.001-10.173l-3.358-6.167h12.588c7.005 0 12.703 5.699 12.703 12.703v34.927h-231.48v-34.928c-.001-5.466 3.477-10.124 8.332-11.911zm-28.536 70.501c0-4.776 3.886-8.663 8.663-8.663h254.561c4.776 0 8.663 3.886 8.663 8.663s-3.887 8.663-8.663 8.663h-254.561c-4.777-.001-8.663-3.887-8.663-8.663zm72.732 55.983h80.54c4.143 0 7.5-3.358 7.5-7.5s-3.357-7.5-7.5-7.5h-120.37c-7.003 0-12.7-5.697-12.7-12.7v-4.621h231.48v4.621c0 7.003-5.697 12.7-12.7 12.7h-50.71c-4.143 0-7.5 3.358-7.5 7.5s3.357 7.5 7.5 7.5h10.883v17.33h-126.423zm166.829 303.635c0 4.776-3.887 8.663-8.663 8.663h-189.91c-4.776 0-8.663-3.886-8.663-8.663v-8.663h207.236zm96.971-32.325c0 4.775-3.885 8.66-8.66 8.66s-8.66-3.885-8.66-8.66v-155.6c0-4.142-3.357-7.5-7.5-7.5s-7.5 3.358-7.5 7.5v133.957h-17.33v-187.032h17.33v18.075c0 4.142 3.357 7.5 7.5 7.5s7.5-3.358 7.5-7.5v-39.72c0-4.775 3.885-8.66 8.66-8.66 2.317 0 4.493.9 6.118 2.524 1.64 1.645 2.542 3.823 2.542 6.135zm32.33-30.305c0 4.776-3.887 8.663-8.663 8.663h-8.667v-187.033h8.667c4.776 0 8.663 3.886 8.663 8.663z"></path></g></g></svg>