<!-- icon666.com - MILLIONS vector ICONS FREE --><svg id="Layer_1" enable-background="new 0 0 480.019 480.019" viewBox="0 0 480.019 480.019" xmlns="http://www.w3.org/2000/svg"><path d="m300.449 95.972c19.88 2.89 27.81 27.32 13.43 41.33l-51.25 49.96 12.1 70.55c3.39 19.79-17.39 34.89-35.16 25.54l-63.35-33.3-63.36 33.3c-17.77 9.35-38.55-5.75-35.16-25.54l12.1-70.55-51.25-49.96c-14.38-14.01-6.45-38.44 13.43-41.33l70.83-10.29 31.68-64.18c8.88-18.01 34.57-18.01 43.46 0l31.67 64.18z" fill="#ff6d7a"></path><path d="m199.489 24.632c-1.97 1.88-3.67 4.17-5 6.87l-31.68 64.18-70.83 10.29c-19.88 2.89-27.81 27.32-13.43 41.33l51.25 49.96-12.1 70.55c-.76 4.46-.3 8.68 1.08 12.43l-5.92 3.11c-17.77 9.35-38.55-5.75-35.16-25.54l12.1-70.55-51.25-49.96c-14.38-14.01-6.45-38.44 13.43-41.33l70.83-10.29 31.68-64.18c8.88-18.01 34.57-18.01 43.46 0z" fill="#ff8c95"></path><path d="m451.369 187.082c19.75 2.87 27.63 27.13 13.34 41.06l-56.05 54.63 13.24 77.15c3.37 19.66-17.27 34.66-34.93 25.38l-69.28-36.43-69.28 36.43c-17.66 9.28-38.3-5.72-34.93-25.38l13.23-77.15-57.22-55.78c-13.81-13.45-6.19-36.9 12.89-39.67l79.08-11.5 34.64-70.19c8.83-17.89 34.34-17.89 43.17 0l34.64 70.19z" fill="#ffe773"></path><path d="m340.909 108.962c-1.89 1.84-3.53 4.07-4.81 6.67l-34.64 70.19-79.08 11.5c-19.08 2.77-26.7 26.22-12.89 39.67l57.22 55.78-13.23 77.15c-.75 4.36-.31 8.49 1.02 12.18l-6.09 3.2c-17.66 9.28-38.3-5.72-34.93-25.38l13.23-77.15-57.22-55.78c-13.81-13.45-6.19-36.9 12.89-39.67l79.08-11.5 34.64-70.19c8.83-17.89 34.34-17.89 43.17 0z" fill="#fff0a6"></path><path d="m312.179 261.132c19.96 2.9 27.93 27.42 13.49 41.5l-59.92 58.4 14.14 82.47c3.41 19.88-17.45 35.04-35.3 25.65l-74.06-38.93-74.07 38.93c-17.85 9.39-38.71-5.77-35.3-25.65l14.14-82.47-59.92-58.4c-14.44-14.08-6.47-38.6 13.49-41.5l82.8-12.04 37.02-75c8.93-18.1 34.74-18.1 43.67 0l37.02 75z" fill="#fff0a6"></path><path d="m193.829 177.072c-2.03 1.92-3.78 4.26-5.14 7.02l-37.02 75-82.8 12.04c-19.96 2.9-27.93 27.42-13.49 41.5l59.92 58.4-14.14 82.47c-.78 4.52-.3 8.79 1.12 12.59l-5.82 3.06c-17.85 9.39-38.71-5.77-35.3-25.65l14.14-82.47-59.92-58.4c-14.44-14.08-6.47-38.6 13.49-41.5l82.8-12.04 37.02-75c8.93-18.1 34.74-18.1 43.67 0z" fill="#fff8d6"></path><g><path d="m274.343 363.829 56.906-55.47c19.186-18.7 8.583-51.297-17.918-55.149l-78.643-11.427-35.156-71.232c-11.863-24.037-46.159-24.025-58.016 0l-17.095 34.639c-1.956 3.962-.329 8.759 3.633 10.714s8.759.329 10.714-3.633l17.095-34.639c5.987-12.132 23.294-12.211 29.321 0l37.017 75.004c1.165 2.361 3.418 3.998 6.023 4.376l82.805 12.032c13.41 1.948 18.773 18.381 9.051 27.858l-59.918 58.406c-1.886 1.838-2.746 4.486-2.301 7.081l14.145 82.47c2.285 13.321-11.655 23.547-23.697 17.217l-74.063-38.938c-2.33-1.226-5.115-1.226-7.445 0l-74.063 38.938c-11.965 6.292-25.996-3.813-23.697-17.217l14.145-82.47c.445-2.595-.415-5.243-2.301-7.081l-59.918-58.406c-9.705-9.461-4.382-25.906 9.052-27.858l82.805-12.032c4.373-.635 7.402-4.695 6.767-9.067-.636-4.373-4.694-7.404-9.067-6.767l-22.409 3.256 9.573-55.816c.445-2.595-.415-5.243-2.301-7.081l-51.252-49.958c-9.644-9.401-4.356-25.748 8.996-27.687l70.829-10.292c2.605-.379 4.858-2.015 6.023-4.376l31.676-64.182c5.962-12.078 23.14-12.1 29.112 0l31.676 64.182c1.165 2.361 3.418 3.998 6.023 4.376l33.975 4.937c4.377.64 8.432-2.394 9.067-6.767s-2.394-8.432-6.767-9.067l-29.812-4.332-29.814-60.411c-11.821-23.951-45.992-23.94-57.807 0l-29.816 60.41-66.667 9.688c-26.431 3.84-36.98 36.343-17.863 54.978l48.241 47.023-9.741 56.794-43.747 6.357c-26.514 3.853-37.096 36.456-17.919 55.148l56.906 55.47-13.434 78.325c-4.528 26.402 23.205 46.547 46.912 34.084l70.34-36.98 70.34 36.98c23.661 12.438 51.444-7.664 46.912-34.084z"></path><path d="m452.523 179.164-73.296-10.65-32.779-66.418c-11.761-23.831-45.764-23.821-57.52 0l-32.779 66.418-13.004 1.889c-4.372.635-7.402 4.695-6.767 9.067s4.691 7.404 9.067 6.767l17.166-2.494c2.605-.379 4.858-2.015 6.023-4.376l34.641-70.189c5.903-11.96 22.913-11.979 28.825 0l34.641 70.189c1.165 2.361 3.418 3.998 6.023 4.376l77.458 11.255c13.2 1.918 18.472 18.089 8.907 27.414l-56.049 54.635c-1.886 1.838-2.746 4.486-2.301 7.081l13.231 77.146c2.258 13.17-11.518 23.146-23.32 16.942l-69.281-36.423c-2.33-1.226-5.115-1.226-7.446 0l-9.373 4.928c-3.911 2.056-5.415 6.893-3.358 10.804 2.056 3.911 6.893 5.414 10.804 3.358l5.651-2.971 65.559 34.466c23.453 12.331 51.032-7.587 46.535-33.81l-12.521-73 53.038-51.699c19.03-18.551 8.512-50.885-17.775-54.705z"></path></g></svg>